<?xml version="1.0" encoding="utf-8"?>
<!-- Generator: Adobe Illustrator 16.0.4, SVG Export Plug-In . SVG Version: 6.00 Build 0)  -->
<!DOCTYPE svg PUBLIC "-//W3C//DTD SVG 1.1//EN" "http://www.w3.org/Graphics/SVG/1.1/DTD/svg11.dtd">
<svg version="1.1" id="Calque_1" xmlns="http://www.w3.org/2000/svg" xmlns:xlink="http://www.w3.org/1999/xlink" x="0px" y="0px"
	 width="595.279px" height="841.891px" viewBox="0 0 595.279 841.891" enable-background="new 0 0 595.279 841.891"
	 xml:space="preserve">
<g>
	<path fill="#FF0000" d="M142.984,379.801c1.557,8.851,5.739,12.45,12.256,12.645c7.781,0.098,13.229-3.696,13.423-16.827
		l0.876-66.337l18.384,0.195l-0.876,64.391c-0.292,26.749-12.45,35.795-32.001,35.601c-17.313-0.195-28.597-10.019-30.348-26.068
		L142.984,379.801z"/>
	<path fill="#FF0000" d="M247.839,368.323h-31.515l-7.198,23.441h-19.843l33.558-99.213h18.384l33.558,99.213H254.94
		L247.839,368.323z M221.771,351.301h21.01l-10.505-34.433L221.771,351.301z"/>
	<path fill="#FF0000" d="M356.098,400.713c0,26.457-15.368,38.811-36.962,38.811c-21.593,0-36.962-12.256-36.962-38.811v-61.57
		h18.384v61.766c0,14.492,6.128,21.496,18.578,21.496s18.578-7.004,18.578-21.496v-61.766h18.384V400.713z"/>
	<path fill="#FF0000" d="M438.193,422.501v99.214h-19.454l-36.476-65.559v65.559h-18.384v-99.214h19.454l36.476,65.559v-65.559
		H438.193z"/>
	<path fill="#FF0000" d="M514.256,467.147v17.021h-42.993v20.815h34.434v17.022h-34.434v27.43h44.452v17.021H452.88v-99.214
		L514.256,467.147L514.256,467.147z"/>
	<path fill="#FF0000" d="M152.127,456.448c-4.767-9.63-12.256-16.244-25.971-15.077c-15.271,1.362-27.235,13.229-25.192,35.989
		c2.043,22.858,15.758,32.487,31.126,31.224c13.617-1.168,19.939-9.046,22.857-19.356l16.925,2.82
		c-3.015,19.356-16.925,31.612-38.323,33.46c-24.706,2.237-48.343-13.423-51.163-46.396c-2.918-33.071,17.605-52.524,42.312-54.567
		c21.399-1.848,37.254,7.879,43.576,26.359L152.127,456.448z"/>
	<path fill="#FF0000" d="M198.719,555.759h-18.384v-99.214h18.384V555.759z"/>
	<path fill="#FF0000" d="M189.283,414.331h73.438v17.021h-27.527v82.191h-18.383v-82.191h-27.527V414.331z"/>
	<path fill="#FF0000" d="M300.85,502.358l27.526,44.354h-20.62l-26.651-42.798h-9.727v42.798h-18.384v-99.214h36.086
		c19.843,0,30.25,11.77,30.25,28.208C319.33,488.741,312.814,498.662,300.85,502.358z M300.948,475.707
		c0-8.073-4.961-11.283-11.673-11.283h-17.896v22.372h17.896C295.987,486.99,300.948,483.78,300.948,475.707z"/>
	<path fill="#FF0000" d="M351.721,566.652h-18.384v-99.213h18.384V566.652z"/>
</g>
</svg>
