<?xml version="1.0" encoding="utf-8"?>
<!-- Generator: Adobe Illustrator 18.0.0, SVG Export Plug-In . SVG Version: 6.00 Build 0)  -->
<!DOCTYPE svg PUBLIC "-//W3C//DTD SVG 1.1//EN" "http://www.w3.org/Graphics/SVG/1.1/DTD/svg11.dtd">
<svg version="1.1" id="Calque_1" xmlns="http://www.w3.org/2000/svg" xmlns:xlink="http://www.w3.org/1999/xlink" x="0px" y="0px"
	 viewBox="0 0 612 792" enable-background="new 0 0 612 792" xml:space="preserve">
<g>
	<path d="M147,353.7c1.6,9.1,5.9,12.8,12.6,13c8,0.1,13.6-3.8,13.8-17.3l0.9-68.2l18.9,0.2l-0.9,66.2c-0.3,27.5-12.8,36.8-32.9,36.6
		c-17.8-0.2-29.4-10.3-31.2-26.8L147,353.7z"/>
	<path d="M254.8,341.9h-32.4L215,366h-20.4l34.5-102H248l34.5,102h-20.4L254.8,341.9z M228,324.4h21.6L238.8,289L228,324.4z"/>
	<path d="M366.1,375.2c0,27.2-15.8,39.9-38,39.9s-38-12.6-38-39.9v-63.3H309v63.5c0,14.9,6.3,22.1,19.1,22.1s19.1-7.2,19.1-22.1
		v-63.5h18.9V375.2z"/>
	<path d="M450.5,397.6v102h-20L393,432.2v67.4h-18.9v-102h20l37.5,67.4v-67.4H450.5z"/>
	<path d="M528.7,443.5V461h-44.2v21.4h35.4v17.5h-35.4v28.2h45.7v17.5h-64.6v-102L528.7,443.5L528.7,443.5z"/>
	<path d="M156.4,432.5c-4.9-9.9-12.6-16.7-26.7-15.5c-15.7,1.4-28,13.6-25.9,37c2.1,23.5,16.2,33.4,32,32.1
		c14-1.2,20.5-9.3,23.5-19.9l17.4,2.9c-3.1,19.9-17.4,32.5-39.4,34.4c-25.4,2.3-49.7-13.8-52.6-47.7c-3-34,18.1-54,43.5-56.1
		c22-1.9,38.3,8.1,44.8,27.1L156.4,432.5z"/>
	<path d="M204.3,534.6h-18.9v-102h18.9V534.6z"/>
	<path d="M194.6,389.2h75.5v17.5h-28.3v84.5h-18.9v-84.5h-28.3V389.2z"/>
	<path d="M309.3,479.7l28.3,45.6h-21.2l-27.4-44h-10v44h-18.9v-102h37.1c20.4,0,31.1,12.1,31.1,29
		C328.3,465.7,321.6,475.9,309.3,479.7z M309.4,452.3c0-8.3-5.1-11.6-12-11.6H279v23h18.4C304.3,463.9,309.4,460.6,309.4,452.3z"/>
	<path d="M361.6,545.8h-18.9v-102h18.9V545.8z"/>
</g>
</svg>
