<?xml version="1.0" encoding="utf-8"?>
<!-- Generator: Adobe Illustrator 18.1.1, SVG Export Plug-In . SVG Version: 6.00 Build 0)  -->
<svg version="1.2" baseProfile="tiny" id="Calque_1"
	 xmlns="http://www.w3.org/2000/svg" xmlns:xlink="http://www.w3.org/1999/xlink" x="0px" y="0px" viewBox="-268 146 595.3 841.9"
	 xml:space="preserve">
<g>
	<path d="M-125,525.8c1.6,8.9,5.7,12.5,12.3,12.6c7.8,0.1,13.2-3.7,13.4-16.8l0.9-66.3l18.4,0.2l-0.9,64.4
		c-0.3,26.7-12.4,35.8-32,35.6c-17.3-0.2-28.6-10-30.3-26.1L-125,525.8z"/>
	<path d="M-20.2,514.3h-31.5l-7.2,23.4h-19.8l33.6-99.2h18.4l33.6,99.2h-19.8L-20.2,514.3z M-46.2,497.3h21l-10.5-34.4L-46.2,497.3z
		"/>
	<path d="M88.1,546.7c0,26.5-15.4,38.8-37,38.8s-37-12.3-37-38.8v-61.6h18.4v61.8c0,14.5,6.1,21.5,18.6,21.5s18.6-7,18.6-21.5v-61.8
		h18.4V546.7z"/>
	<path d="M170.2,568.5v99.2h-19.5l-36.5-65.6v65.6H95.9v-99.2h19.5l36.5,65.6v-65.6H170.2L170.2,568.5z"/>
	<path d="M246.3,613.1v17h-43V651h34.4v17h-34.4v27.4h44.5v17h-62.8v-99.2L246.3,613.1L246.3,613.1z"/>
	<path d="M-115.9,602.4c-4.8-9.6-12.3-16.2-26-15.1c-15.3,1.4-27.2,13.2-25.2,36c2,22.9,15.8,32.5,31.1,31.2
		c13.6-1.2,19.9-9,22.9-19.4l16.9,2.8c-3,19.4-16.9,31.6-38.3,33.5c-24.7,2.2-48.3-13.4-51.2-46.4c-2.9-33.1,17.6-52.5,42.3-54.6
		c21.4-1.8,37.3,7.9,43.6,26.4L-115.9,602.4z"/>
	<path d="M-69.3,701.7h-18.4v-99.2h18.4V701.7z"/>
	<path d="M-78.7,560.3h73.4v17h-27.5v82.2h-18.4v-82.2h-27.5L-78.7,560.3L-78.7,560.3z"/>
	<path d="M32.9,648.3l27.5,44.4H39.8l-26.7-42.8H3.4v42.8H-15v-99.2h36.1c19.8,0,30.2,11.8,30.2,28.2
		C51.3,634.7,44.8,644.6,32.9,648.3z M32.9,621.7c0-8.1-5-11.3-11.7-11.3H3.4v22.4h17.9C28,633,32.9,629.7,32.9,621.7z"/>
	<path d="M83.7,712.6H65.3v-99.2h18.4V712.6z"/>
</g>
</svg>
