<?xml version="1.0" encoding="utf-8"?>
<!-- Generator: Adobe Illustrator 16.0.4, SVG Export Plug-In . SVG Version: 6.00 Build 0)  -->
<!DOCTYPE svg PUBLIC "-//W3C//DTD SVG 1.1//EN" "http://www.w3.org/Graphics/SVG/1.1/DTD/svg11.dtd">
<svg version="1.1" id="Calque_1" xmlns="http://www.w3.org/2000/svg" xmlns:xlink="http://www.w3.org/1999/xlink" x="0px" y="0px"
	 width="595.279px" height="841.891px" viewBox="0 0 595.279 841.891" enable-background="new 0 0 595.279 841.891"
	 xml:space="preserve">
<g>
	<path d="M142.984,379.801c1.557,8.851,5.739,12.45,12.256,12.645c7.781,0.099,13.229-3.695,13.423-16.826l0.876-66.338
		l18.384,0.195l-0.876,64.392c-0.292,26.748-12.449,35.794-32.001,35.601c-17.312-0.195-28.597-10.02-30.348-26.068L142.984,379.801
		z"/>
	<path d="M247.839,368.323h-31.515l-7.198,23.441h-19.843l33.558-99.213h18.385l33.558,99.213H254.94L247.839,368.323z
		 M221.771,351.301h21.01l-10.505-34.433L221.771,351.301z"/>
	<path d="M356.098,400.713c0,26.457-15.368,38.811-36.962,38.811s-36.963-12.256-36.963-38.811v-61.57h18.385v61.766
		c0,14.492,6.128,21.496,18.578,21.496s18.578-7.004,18.578-21.496v-61.766h18.384V400.713z"/>
	<path d="M438.193,422.501v99.214h-19.454l-36.476-65.56v65.56H363.88v-99.214h19.453l36.477,65.559v-65.559H438.193
		L438.193,422.501z"/>
	<path d="M514.257,467.147v17.021h-42.993v20.814h34.434v17.022h-34.434v27.43h44.452v17.021h-62.835v-99.214L514.257,467.147
		L514.257,467.147z"/>
	<path d="M152.127,456.448c-4.767-9.63-12.256-16.244-25.971-15.077c-15.271,1.362-27.235,13.229-25.192,35.989
		c2.043,22.858,15.759,32.487,31.126,31.224c13.617-1.168,19.939-9.046,22.857-19.355l16.925,2.82
		c-3.015,19.355-16.925,31.611-38.323,33.46c-24.706,2.236-48.343-13.423-51.162-46.396c-2.919-33.071,17.604-52.523,42.312-54.566
		c21.399-1.849,37.254,7.879,43.576,26.358L152.127,456.448z"/>
	<path d="M198.719,555.759h-18.385v-99.214h18.385V555.759z"/>
	<path d="M189.283,414.33h73.438v17.021h-27.527v82.19h-18.383v-82.19h-27.527L189.283,414.33L189.283,414.33z"/>
	<path d="M300.85,502.358l27.526,44.354h-20.62l-26.651-42.799h-9.728v42.799h-18.384v-99.215h36.086
		c19.844,0,30.25,11.771,30.25,28.208C319.33,488.74,312.814,498.661,300.85,502.358z M300.948,475.706
		c0-8.072-4.961-11.282-11.673-11.282h-17.896v22.372h17.896C295.987,486.99,300.948,483.78,300.948,475.706z"/>
	<path d="M351.721,566.652h-18.384v-99.213h18.384V566.652z"/>
</g>
</svg>
